HIERARCHY
ROOT root
{
	OFFSET	0	13.1	24.9
	CHANNELS 6  Xposition Yposition Zposition Xrotation Yrotation Zrotation
	JOINT spine_1
	{
		OFFSET	0	9.99999	0
		CHANNELS 3  Xrotation Yrotation Zrotation
		JOINT spine_2
		{
			OFFSET	0	112	-10
			CHANNELS 3  Xrotation Yrotation Zrotation
			JOINT spine_3
			{
				OFFSET	0	206.5	19.3
				CHANNELS 3  Xrotation Yrotation Zrotation
				JOINT spine_4
				{
					OFFSET	0	110.4	14.6
					CHANNELS 3  Xrotation Yrotation Zrotation
					JOINT neck_1
					{
						OFFSET	0	71.8	-50.3
						CHANNELS 3  Xrotation Yrotation Zrotation
						JOINT neck_2
						{
							OFFSET	0	86.2	-25.8
							CHANNELS 3  Xrotation Yrotation Zrotation
							JOINT head_ee
							{
								OFFSET	0	179.8	-8.7
								CHANNELS 3  Xrotation Yrotation Zrotation
								End Site
								{
									OFFSET	1	0	0
								}
							}
						}
					}
					JOINT left_clavicle
					{
						OFFSET	-43.2	22.4	-70.8
						CHANNELS 3  Xrotation Yrotation Zrotation
						JOINT left_shoulder
						{
							OFFSET	-93.9	-5.79999	48.7
							CHANNELS 3  Xrotation Yrotation Zrotation
							JOINT left_elbow
							{
								OFFSET	-291.4	-30.8	15.2
								CHANNELS 3  Xrotation Yrotation Zrotation
								JOINT left_lowarm_twist
								{
									OFFSET	-110.7	-3.89999	13.6
									CHANNELS 3  Xrotation Yrotation Zrotation
									JOINT left_hand
									{
										OFFSET	-110.7	-3.89999	13.6
										CHANNELS 3  Xrotation Yrotation Zrotation
										JOINT left_ee
										{
											OFFSET	-80.8	-5.10001	12.1
											CHANNELS 3  Xrotation Yrotation Zrotation
											End Site
											{
												OFFSET	1	0	0
											}
										}
									}
								}
							}
						}
					}
					JOINT right_clavicle
					{
						OFFSET	43.2	22.4	-70.8
						CHANNELS 3  Xrotation Yrotation Zrotation
						JOINT right_shoulder
						{
							OFFSET	93.9	-5.79999	48.7
							CHANNELS 3  Xrotation Yrotation Zrotation
							JOINT right_elbow
							{
								OFFSET	291.4	-30.8	15.2
								CHANNELS 3  Xrotation Yrotation Zrotation
								JOINT right_lowarm_twist
								{
									OFFSET	110.7	-3.89999	13.6
									CHANNELS 3  Xrotation Yrotation Zrotation
									JOINT right_hand
									{
										OFFSET	110.7	-3.89999	13.6
										CHANNELS 3  Xrotation Yrotation Zrotation
										JOINT right_ee
										{
											OFFSET	80.8	-5.10001	12.1
											CHANNELS 3  Xrotation Yrotation Zrotation
											End Site
											{
												OFFSET	1	0	0
											}
										}
									}
								}
							}
						}
					}
				}
			}
		}
	}
	JOINT left_hip
	{
		OFFSET	-82.8	-127.5	0.300001
		CHANNELS 3  Xrotation Yrotation Zrotation
		JOINT left_knee
		{
			OFFSET	-28.2	-396.7	2.2
			CHANNELS 3  Xrotation Yrotation Zrotation
			JOINT left_ankle
			{
				OFFSET	-11.7	-411.3	35.4
				CHANNELS 3  Xrotation Yrotation Zrotation
				JOINT left_toes
				{
					OFFSET	0	-60	-88.6
					CHANNELS 3  Xrotation Yrotation Zrotation
					JOINT left_foot_ee
					{
						OFFSET	-22.5	-16.5	-42.2
						CHANNELS 3  Xrotation Yrotation Zrotation
						End Site
						{
							OFFSET	1	0	0
						}
					}
				}
			}
		}
	}
	JOINT right_hip
	{
		OFFSET	82.8	-127.5	0.300001
		CHANNELS 3  Xrotation Yrotation Zrotation
		JOINT right_knee
		{
			OFFSET	28.2	-396.7	2.2
			CHANNELS 3  Xrotation Yrotation Zrotation
			JOINT right_ankle
			{
				OFFSET	11.7	-411.3	35.4
				CHANNELS 3  Xrotation Yrotation Zrotation
				JOINT right_toes
				{
					OFFSET	0	-60	-88.6
					CHANNELS 3  Xrotation Yrotation Zrotation
					JOINT right_foot_ee
					{
						OFFSET	22.5	-16.5	-42.2
						CHANNELS 3  Xrotation Yrotation Zrotation
						End Site
						{
							OFFSET	1	0	0
						}
					}
				}
			}
		}
	}
}
MOTION
Frames: 6
Frame Time: 0.02
2871.42332264 710.503 -1863.48228771 1.36010622391 39.3228169348 6.83128244946 0.76285 -0.624962 -3.02522 0.767838 -0.431285 -3.05881 0.792665 0.178552 -3.08388 0.779529 -0.310494 -3.07341 -14.8411 2.33326 3.5915 -14.8089 2.31676 4.15876 -0.0 0.0 -0.0 10.7092 8.27515 20.4018 -16.3398 -24.522 50.7185 1.21104 -30.9588 0.335393 18.2845 0.277888 -2.30926 -2.06547 6.80964 -10.678 -0.0 0.0 -0.0 2.8968 11.0562 -4.72507 -17.1661 19.5562 -66.0471 0.720297 19.6371 -0.124659 -66.5174 6.10261 -5.25743 -0.805213 -9.75269 1.1244 0.0 0.0 0.0 5.61973 -12.6744 -5.67145 -12.1334 0.306423 1.83337 -1.40847 27.3949 0.218607 37.6243 -0.0 -0.0 -0.0 0.0 -0.0 22.4739 11.1192 -7.05381 -52.203 1.4194 -7.61259 -2.16185 -22.1555 -0.327177 -34.9882 0.0 0.0 0.0 0.0 0.0 
2856.22643884 707.705 -1873.78159832 0.933805981197 38.0456170332 7.03992379028 0.928985 -0.650914 -2.98532 0.933825 -0.45972 -3.02065 0.95962 0.134219 -3.05245 0.946789 -0.349316 -3.03538 -15.1356 3.24019 2.43718 -15.1381 4.75683 3.37893 -0.0 0.0 -0.0 10.5899 7.81894 20.2221 -15.2677 -24.5441 49.6185 1.33898 -33.5543 0.403697 16.6129 0.283274 -2.09582 -1.88648 4.4726 -10.6029 -0.0 0.0 -0.0 3.10509 10.7286 -5.18649 -18.4707 19.7937 -65.8708 0.643337 17.6767 -0.100036 -67.3333 6.20626 -5.27036 -0.771383 -11.0039 0.366148 0.0 0.0 0.0 3.33633 -13.3839 -5.16867 -9.83769 0.278365 1.48226 3.262 28.5745 -0.504765 40.1245 -0.0 -0.0 -0.0 0.0 -0.0 25.8891 12.1152 -9.44189 -52.7996 1.47464 -7.68606 -3.27094 -28.3831 -0.512607 -36.1502 0.0 0.0 0.0 0.0 0.0 
2836.55313341 705.998 -1884.47613113 0.96077440001 37.6641461267 6.8257167309 1.04853 -0.714645 -2.84566 1.05288 -0.532198 -2.88532 1.08104 0.0305588 -2.93379 1.06929 -0.432964 -2.90185 -15.2345 3.29049 2.25903 -15.2414 4.96377 3.23233 -0.0 0.0 -0.0 10.4033 6.27731 20.0163 -14.5936 -24.6072 48.8321 1.3865 -34.4805 0.430279 16.6715 0.28319 -2.10331 -1.70745 1.56169 -10.7593 -0.0 0.0 -0.0 2.64742 10.526 -4.25233 -19.1862 20.4083 -66.9098 0.6194 17.0579 -0.0928907 -68.8996 6.40567 -5.29102 -0.553544 -10.354 -0.74462 0.0 0.0 0.0 2.00569 -13.1316 -4.51544 -9.51981 0.273372 1.43374 4.30815 28.5243 -0.664713 40.1834 -0.0 -0.0 -0.0 0.0 -0.0 28.0027 10.1168 -9.85198 -53.1277 1.50534 -7.72622 -5.83331 -29.3858 -0.924179 -37.5425 0.0 0.0 0.0 0.0 0.0 
2799.26744295 702.655 -1903.66363671 0.274884754727 38.0445036269 7.47165982571 1.37921 -0.811141 -2.99491 1.38399 -0.619014 -3.0404 1.41791 -0.0433017 -3.10241 1.40488 -0.532494 -3.05672 -16.706 4.65567 2.85978 -16.7378 7.32195 4.35772 -0.0 0.0 -0.0 10.4032 7.28125 19.9165 -11.1988 -25.6491 49.038 1.69905 -40.0825 0.619827 16.1074 0.283677 -2.03126 -2.131 2.56273 -13.1647 -0.0 0.0 -0.0 2.06825 7.78479 -3.30422 -21.6795 19.9815 -66.9851 0.53076 14.7311 -0.0686098 -69.6194 6.49746 -5.29868 -0.400226 -10.4166 -1.75066 0.0 0.0 0.0 -1.52499 -13.2302 -3.78569 -8.99899 0.264609 1.3543 13.4417 26.8789 -1.99799 39.8134 -0.0 -0.0 -0.0 0.0 -0.0 31.965 12.5305 -11.9462 -53.8473 1.57349 -7.81368 -6.22638 -29.2962 -0.986485 -38.153 0.0 0.0 0.0 0.0 0.0 
2757.84104006 697.247 -1914.97216046 -0.0363038804319 39.2705192015 7.43887011587 1.57826 -0.927091 -3.42366 1.58451 -0.707491 -3.47563 1.62844 -0.0625379 -3.54627 1.61143 -0.621474 -3.49201 -16.4968 5.59851 1.79072 -16.5844 9.72514 3.68427 -0.0 0.0 -0.0 10.2851 7.17091 19.6982 -8.90704 -26.0484 49.1022 1.84256 -42.3841 0.714438 15.0928 0.282765 -1.90168 -2.02164 0.878753 -13.2179 -0.0 0.0 -0.0 0.784435 6.22439 -0.848534 -24.2383 20.0455 -67.0335 0.609728 16.8066 -0.0900735 -70.5926 6.62167 -5.30718 -0.306396 -9.72158 -2.06138 0.0 0.0 0.0 -3.40665 -9.54133 -2.94379 -7.41847 0.2336 1.11376 15.246 26.1616 -2.24227 40.0453 -0.0 -0.0 -0.0 0.0 -0.0 35.1715 12.8361 -10.4148 -51.8289 1.38516 -7.56624 -7.46407 -26.9058 -1.16746 -39.3092 0.0 0.0 0.0 0.0 0.0 
2735.29180565 697.382 -1916.12948319 -0.305767391974 39.4058525431 6.8688199176 1.7176 -0.722246 -3.5342 1.72441 -0.49604 -3.57293 1.75591 0.155503 -3.6038 1.73803 -0.415228 -3.5832 -15.0414 5.45033 1.8461 -15.1067 9.33109 3.55681 -0.0 0.0 -0.0 10.6518 7.03755 20.4271 -8.39711 -25.581 48.8707 1.93185 -43.7361 0.77541 14.6629 0.281687 -1.84678 -1.75049 0.599159 -11.4969 -0.0 0.0 -0.0 0.597401 6.64938 -0.423139 -25.0515 20.0817 -67.0532 0.48479 13.5041 -0.0573966 -70.4092 6.59825 -5.30574 -0.20113 -9.02961 -2.45113 0.0 0.0 0.0 -4.45167 -8.70006 -0.8209 -6.22471 0.205785 0.932678 14.9586 26.2394 -2.20328 40.0766 -0.0 -0.0 -0.0 0.0 -0.0 34.3631 14.7096 -9.15145 -36.7515 0.273137 -5.53813 -8.82135 -27.4402 -1.38674 -39.5174 0.0 0.0 0.0 0.0 0.0 
